<?xml version="1.0" encoding="UTF-8" standalone="no"?>
<!DOCTYPE svg PUBLIC "-//W3C//DTD SVG 1.1//EN"
 "http://www.w3.org/Graphics/SVG/1.1/DTD/svg11.dtd">
<!-- Generated by graphviz version 2.47.3 (0)
 -->
<!-- Pages: 1 -->
<svg width="329pt" height="355pt"
 viewBox="0.00 0.00 329.33 355.00" xmlns="http://www.w3.org/2000/svg" xmlns:xlink="http://www.w3.org/1999/xlink">
<g id="graph0" class="graph" transform="scale(1 1) rotate(0) translate(4 351)">
<polygon fill="#333333" stroke="transparent" points="-4,4 -4,-351 325.33,-351 325.33,4 -4,4"/>
<text text-anchor="middle" x="160.67" y="-9.2" font-family="Times,serif" font-size="16.00" fill="white">Network Map</text>
<!-- R3 -->
<g id="node1" class="node">
<title>R3</title>
<polygon fill="#006699" stroke="#006699" points="81.83,-347 4.83,-347 4.83,-274 81.83,-274 81.83,-347"/>
<text text-anchor="middle" x="43.33" y="-306.8" font-family="Helvetica,sans-Serif" font-size="14.00" fill="white">R3</text>
</g>
<!-- R4 -->
<g id="node2" class="node">
<title>R4</title>
<polygon fill="#006699" stroke="#006699" points="186.83,-347 109.83,-347 109.83,-274 186.83,-274 186.83,-347"/>
<text text-anchor="middle" x="148.33" y="-306.8" font-family="Helvetica,sans-Serif" font-size="14.00" fill="white">R4</text>
</g>
<!-- R2 -->
<g id="node3" class="node">
<title>R2</title>
<polygon fill="#006699" stroke="#006699" points="291.83,-347 214.83,-347 214.83,-274 291.83,-274 291.83,-347"/>
<text text-anchor="middle" x="253.33" y="-306.8" font-family="Helvetica,sans-Serif" font-size="14.00" fill="white">R2</text>
</g>
<!-- R1 -->
<g id="node4" class="node">
<title>R1</title>
<polygon fill="#006699" stroke="#006699" points="186.83,-99 109.83,-99 109.83,-26 186.83,-26 186.83,-99"/>
<text text-anchor="middle" x="148.33" y="-58.8" font-family="Helvetica,sans-Serif" font-size="14.00" fill="white">R1</text>
</g>
<!-- SW1 -->
<g id="node5" class="node">
<title>SW1</title>
<polygon fill="#006699" stroke="#006699" points="193.33,-223 103.33,-223 103.33,-150 193.33,-150 193.33,-223"/>
<text text-anchor="middle" x="148.33" y="-182.8" font-family="Helvetica,sans-Serif" font-size="14.00" fill="white">SW1</text>
</g>
<!-- R1&#45;&#45;SW1 -->
<g id="edge1" class="edge">
<title>R1&#45;&#45;SW1</title>
<path fill="none" stroke="green" stroke-dasharray="5,2" d="M148.33,-99.12C148.33,-115.01 148.33,-133.7 148.33,-149.63"/>
<text text-anchor="middle" x="189.33" y="-120.8" font-family="Courier,monospace" font-size="14.00" fill="white"> &#160;&#160;&#160;&#160;&#160;&#160;&#160;&#160;&#160;&#160;&#160;</text>
<text text-anchor="middle" x="124.33" y="-138.43" font-family="Courier,monospace" font-size="14.00" fill="white">Eth 0/1</text>
<text text-anchor="middle" x="124.33" y="-102.92" font-family="Courier,monospace" font-size="14.00" fill="white">Eth 0/0</text>
</g>
<!-- SW1&#45;&#45;R3 -->
<g id="edge3" class="edge">
<title>SW1&#45;&#45;R3</title>
<path fill="none" stroke="green" stroke-dasharray="5,2" d="M103.18,-207.2C88.29,-215.68 72.87,-226.92 62.33,-241 55.23,-250.49 50.79,-262.49 48,-273.79"/>
<text text-anchor="middle" x="103.33" y="-244.8" font-family="Courier,monospace" font-size="14.00" fill="white"> &#160;&#160;&#160;&#160;&#160;&#160;&#160;&#160;&#160;&#160;&#160;</text>
<text text-anchor="middle" x="24" y="-262.59" font-family="Courier,monospace" font-size="14.00" fill="white">Eth 0/0</text>
<text text-anchor="middle" x="79.18" y="-196" font-family="Courier,monospace" font-size="14.00" fill="white">Eth 0/3</text>
</g>
<!-- SW1&#45;&#45;R4 -->
<g id="edge4" class="edge">
<title>SW1&#45;&#45;R4</title>
<path fill="none" stroke="green" stroke-dasharray="5,2" d="M148.33,-223.12C148.33,-239.01 148.33,-257.7 148.33,-273.63"/>
<text text-anchor="middle" x="189.33" y="-244.8" font-family="Courier,monospace" font-size="14.00" fill="white"> &#160;&#160;&#160;&#160;&#160;&#160;&#160;&#160;&#160;&#160;&#160;</text>
<text text-anchor="middle" x="124.33" y="-262.43" font-family="Courier,monospace" font-size="14.00" fill="white">Eth 0/0</text>
<text text-anchor="middle" x="124.33" y="-226.92" font-family="Courier,monospace" font-size="14.00" fill="white">Eth 0/4</text>
</g>
<!-- SW1&#45;&#45;R2 -->
<g id="edge2" class="edge">
<title>SW1&#45;&#45;R2</title>
<path fill="none" stroke="green" stroke-dasharray="5,2" d="M193.76,-209.03C207.43,-217.38 221.42,-228.08 231.33,-241 238.63,-250.51 243.55,-262.52 246.85,-273.82"/>
<text text-anchor="middle" x="280.33" y="-244.8" font-family="Courier,monospace" font-size="14.00" fill="white"> &#160;&#160;&#160;&#160;&#160;&#160;&#160;&#160;&#160;&#160;&#160;</text>
<text text-anchor="middle" x="222.85" y="-262.62" font-family="Courier,monospace" font-size="14.00" fill="white">Eth 0/0</text>
<text text-anchor="middle" x="217.76" y="-197.83" font-family="Courier,monospace" font-size="14.00" fill="white">Eth 0/2</text>
</g>
</g>
</svg>
